<?xml version="1.0" standalone="no"?>
<!DOCTYPE svg PUBLIC "-//W3C//DTD SVG 20010904//EN"
 "http://www.w3.org/TR/2001/REC-SVG-20010904/DTD/svg10.dtd">
<svg version="1.0" xmlns="http://www.w3.org/2000/svg"
 width="700.000000pt" height="700.000000pt" viewBox="0 0 700.000000 700.000000"
 preserveAspectRatio="xMidYMid meet">
<metadata>
Created by potrace 1.14, written by Peter Selinger 2001-2017
</metadata>
<g transform="translate(0.000000,700.000000) scale(0.100000,-0.100000)"
fill="#000000" stroke="none">
<path d="M3305 6954 c-755 -63 -1435 -419 -1900 -996 -588 -729 -752 -1703
-440 -2598 56 -159 192 -428 294 -580 53 -80 511 -661 1123 -1425 958 -1196
1037 -1291 1076 -1305 37 -13 47 -13 84 0 39 14 115 107 1016 1230 535 668
1013 1267 1061 1330 301 394 475 803 547 1285 22 146 29 457 15 611 -43 453
-192 880 -436 1244 -115 172 -199 274 -340 416 -416 418 -929 677 -1515 764
-131 20 -467 34 -585 24z m550 -563 c158 -28 285 -63 425 -117 741 -289 1263
-966 1360 -1764 14 -120 12 -397 -4 -520 -44 -324 -161 -640 -334 -900 -72
-109 -1788 -2260 -1802 -2260 -14 0 -1730 2151 -1802 2260 -177 266 -298 598
-338 930 -13 109 -13 381 0 490 95 782 593 1443 1315 1745 185 78 392 131 600
155 132 15 443 5 580 -19z"/>
<path d="M3385 5204 c-148 -24 -307 -84 -412 -155 -69 -47 -188 -164 -238
-234 -60 -84 -110 -189 -141 -292 -37 -126 -44 -311 -16 -443 77 -372 360
-656 735 -735 143 -31 355 -16 501 35 289 100 515 346 598 651 20 72 23 106
22 244 -1 143 -3 169 -27 248 -32 104 -83 209 -142 292 -50 70 -169 187 -238
234 -75 51 -206 109 -298 131 -82 21 -279 34 -344 24z"/>
</g>
</svg>
