<svg width="28" height="57" viewBox="0 0 28 57" fill="none" xmlns="http://www.w3.org/2000/svg">
<path d="M26.1617 11.3795C27.7622 10.7169 28.4328 8.83094 27.7105 7.30179L25.1807 2.10319C24.4579 0.625008 22.7025 -0.0376242 21.1536 0.625008C16.8168 2.45999 13.099 4.85566 10.0534 7.71007C6.38719 11.1762 3.85788 15.101 2.515 19.4336C1.17264 23.7147 0.50198 29.6789 0.50198 37.3246V52.9729C0.50198 54.655 1.89597 56.0313 3.59973 56.0313H23.89C25.5938 56.0313 26.9877 54.655 26.9877 52.9729V32.9411C26.9877 31.2585 25.5938 29.8828 23.89 29.8828H14.1321C14.2353 24.7341 15.475 20.6059 17.7461 17.4961C19.6048 14.999 22.3927 12.9602 26.1617 11.3795Z" fill="white"/>
</svg>
